<?xml version="1.0" encoding="UTF-8"?><svg xmlns="http://www.w3.org/2000/svg" xmlns:xlink="http://www.w3.org/1999/xlink" viewBox="0 0 595.28 595.28"><defs><style>.n{fill:none;}.o{fill:url(#k);}.p{fill:url(#j);}.q{fill:url(#i);}.r{fill:url(#h);}.s{fill:url(#l);}.t{fill:url(#g);}.u{fill:url(#f);}.v{fill:url(#e);}.w{fill:url(#d);}.x{fill:url(#c);}.y{fill:url(#b);}.z{fill:#50d086;}</style><linearGradient id="b" x1="345.76" y1="292.51" x2="362.34" y2="275.94" gradientUnits="userSpaceOnUse"><stop offset=".38" stop-color="#5b96f7"/><stop offset="1" stop-color="#37cb89"/></linearGradient><linearGradient id="c" x1="249.79" y1="253.86" x2="266.36" y2="237.29" xlink:href="#b"/><linearGradient id="d" x1="215.15" y1="354.44" x2="356.12" y2="213.47" gradientUnits="userSpaceOnUse"><stop offset="0" stop-color="#5b96f7"/><stop offset=".42" stop-color="#34b1e6"/><stop offset="1" stop-color="#37cb89"/></linearGradient><linearGradient id="e" x1="193.98" y1="206.73" x2="193.98" y2="63.37" gradientUnits="userSpaceOnUse"><stop offset="0" stop-color="#5b96f7"/><stop offset="1" stop-color="#34b1e6"/></linearGradient><linearGradient id="f" x1="285.32" y1="161.4" x2="285.32" y2="18.05" gradientUnits="userSpaceOnUse"><stop offset=".31" stop-color="#34b1e6"/><stop offset="1" stop-color="#37cb89"/></linearGradient><linearGradient id="g" x1="19.94" y1="488.8" x2="578.22" y2="488.8" xlink:href="#d"/><linearGradient id="h" x1="19.94" y1="488.8" x2="578.22" y2="488.8" xlink:href="#d"/><linearGradient id="i" x1="19.94" y1="488.8" x2="578.22" y2="488.8" xlink:href="#d"/><linearGradient id="j" x1="19.94" y1="488.8" x2="578.22" y2="488.8" xlink:href="#d"/><linearGradient id="k" x1="19.94" y1="488.8" x2="578.22" y2="488.8" xlink:href="#d"/><linearGradient id="l" x1="19.94" y1="488.8" x2="578.22" y2="488.8" xlink:href="#d"/></defs><g id="a"><path class="y" d="M365.77,284.22c0,6.47-5.25,11.72-11.72,11.72s-11.72-5.25-11.72-11.72,5.25-11.72,11.72-11.72,11.72,5.25,11.72,11.72Z"/><path class="x" d="M269.8,245.57c0,6.47-5.25,11.72-11.72,11.72s-11.72-5.25-11.72-11.72,5.25-11.72,11.72-11.72,11.72,5.25,11.72,11.72Z"/><path class="w" d="M285.64,184.27c-55.05,0-99.68,44.63-99.68,99.68,0,9.12,1.23,17.96,3.53,26.35,13.58.44,24.46,11.58,24.46,25.27,0,4.93-1.41,9.52-3.85,13.41,18.28,21.22,45.34,34.65,75.55,34.65,55.05,0,99.68-44.63,99.68-99.68s-44.63-99.68-99.68-99.68ZM230.83,245.59c0-15.06,12.21-27.26,27.26-27.26s27.26,12.21,27.26,27.26-12.21,27.26-27.26,27.26-27.26-12.21-27.26-27.26ZM277.6,334.46c-8.58,0-15.54-6.96-15.54-15.54s6.96-15.54,15.54-15.54,15.54,6.96,15.54,15.54-6.96,15.54-15.54,15.54ZM312.19,242.02c-6.47,0-11.72-5.25-11.72-11.72s5.25-11.72,11.72-11.72,11.72,5.25,11.72,11.72-5.25,11.72-11.72,11.72ZM354.08,308.22c-13.22,0-23.93-10.72-23.93-23.93s10.72-23.93,23.93-23.93,23.93,10.72,23.93,23.93-10.72,23.93-23.93,23.93Z"/><path class="z" d="M387.67,201.3c0,3-2.43,5.43-5.43,5.43s-5.43-2.43-5.43-5.43V68.8c0-3,2.43-5.43,5.43-5.43s5.43,2.43,5.43,5.43v132.5Z"/><path class="v" d="M199.41,201.3c0,3-2.43,5.43-5.43,5.43s-5.43-2.43-5.43-5.43V68.8c0-3,2.43-5.43,5.43-5.43s5.43,2.43,5.43,5.43v132.5Z"/><path class="u" d="M290.74,155.98c0,3-2.43,5.43-5.43,5.43s-5.43-2.43-5.43-5.43V23.48c0-3,2.43-5.43,5.43-5.43s5.43,2.43,5.43,5.43v132.5Z"/><path class="t" d="M19.94,428.29h31.1l32.85,80.14h1.4l32.85-80.14h31.1v119.27h-24.46v-77.63h-.99l-30.87,77.05h-16.66l-30.87-77.34h-.99v77.92h-24.46v-119.27Z"/><path class="r" d="M210.27,549.31c-9.2,0-17.11-1.87-23.73-5.62-6.62-3.75-11.72-9.07-15.29-15.96s-5.36-15.05-5.36-24.49,1.79-17.28,5.36-24.23c3.57-6.95,8.61-12.37,15.11-16.25,6.5-3.88,14.14-5.82,22.92-5.82,5.9,0,11.4.94,16.51,2.82,5.1,1.88,9.57,4.71,13.39,8.47,3.82,3.77,6.8,8.49,8.94,14.18,2.13,5.69,3.2,12.34,3.2,19.95v6.81h-75.54v-15.38h52.18c0-3.57-.78-6.74-2.33-9.49-1.55-2.76-3.7-4.92-6.44-6.49-2.74-1.57-5.91-2.36-9.52-2.36s-7.1.86-9.99,2.59c-2.89,1.73-5.15,4.04-6.79,6.93s-2.47,6.11-2.5,9.64v14.62c0,4.43.82,8.25,2.47,11.47s3.99,5.71,7.02,7.45,6.62,2.62,10.77,2.62c2.76,0,5.28-.39,7.57-1.17,2.29-.78,4.25-1.94,5.88-3.49s2.87-3.46,3.73-5.71l22.95,1.51c-1.17,5.51-3.54,10.32-7.13,14.41-3.59,4.1-8.21,7.28-13.86,9.55-5.65,2.27-12.16,3.41-19.54,3.41Z"/><path class="q" d="M315.09,458.11v18.64h-53.87v-18.64h53.87ZM273.45,436.68h24.81v83.4c0,2.29.35,4.07,1.05,5.33.7,1.26,1.68,2.15,2.94,2.65,1.26.5,2.73.76,4.4.76,1.17,0,2.33-.11,3.49-.32,1.17-.21,2.06-.38,2.68-.5l3.9,18.46c-1.24.39-2.99.84-5.24,1.37-2.25.52-4.99.84-8.21.96-5.98.23-11.21-.56-15.7-2.39-4.48-1.82-7.97-4.66-10.45-8.5-2.49-3.84-3.71-8.7-3.67-14.56v-86.66Z"/><path class="p" d="M370.71,549.31c-9.05,0-16.86-1.93-23.44-5.79-6.58-3.86-11.66-9.26-15.23-16.19-3.57-6.93-5.36-14.98-5.36-24.14s1.79-17.33,5.36-24.26c3.57-6.93,8.65-12.33,15.23-16.19s14.39-5.79,23.44-5.79,16.86,1.93,23.44,5.79c6.58,3.86,11.66,9.26,15.23,16.19,3.57,6.93,5.36,15.02,5.36,24.26s-1.79,17.21-5.36,24.14c-3.57,6.93-8.65,12.33-15.23,16.19-6.58,3.86-14.39,5.79-23.44,5.79ZM370.83,530.09c4.12,0,7.55-1.17,10.31-3.52,2.76-2.35,4.84-5.56,6.26-9.64,1.42-4.08,2.12-8.72,2.12-13.92s-.71-9.84-2.12-13.92c-1.42-4.08-3.5-7.3-6.26-9.67-2.76-2.37-6.19-3.55-10.31-3.55s-7.64,1.18-10.45,3.55c-2.82,2.37-4.93,5.59-6.35,9.67-1.42,4.08-2.13,8.72-2.13,13.92s.71,9.84,2.13,13.92c1.42,4.08,3.53,7.29,6.35,9.64,2.81,2.35,6.3,3.52,10.45,3.52Z"/><path class="o" d="M430.93,547.56v-89.45h24.05v15.61h.93c1.63-5.55,4.37-9.75,8.21-12.61s8.27-4.28,13.28-4.28c1.24,0,2.58.08,4.02.23,1.44.16,2.7.37,3.79.64v22.01c-1.16-.35-2.78-.66-4.83-.93-2.06-.27-3.94-.41-5.65-.41-3.65,0-6.9.79-9.75,2.36-2.85,1.57-5.11,3.76-6.76,6.55-1.65,2.8-2.48,6.02-2.48,9.67v50.61h-24.81Z"/><path class="s" d="M534.19,549.31c-9.05,0-16.86-1.93-23.44-5.79-6.58-3.86-11.66-9.26-15.23-16.19-3.57-6.93-5.36-14.98-5.36-24.14s1.79-17.33,5.36-24.26c3.57-6.93,8.65-12.33,15.23-16.19s14.39-5.79,23.44-5.79,16.86,1.93,23.44,5.79c6.58,3.86,11.66,9.26,15.23,16.19,3.57,6.93,5.36,15.02,5.36,24.26s-1.79,17.21-5.36,24.14c-3.57,6.93-8.65,12.33-15.23,16.19-6.58,3.86-14.39,5.79-23.44,5.79ZM534.3,530.09c4.12,0,7.55-1.17,10.31-3.52,2.76-2.35,4.84-5.56,6.26-9.64,1.42-4.08,2.12-8.72,2.12-13.92s-.71-9.84-2.12-13.92c-1.42-4.08-3.5-7.3-6.26-9.67-2.76-2.37-6.19-3.55-10.31-3.55s-7.64,1.18-10.45,3.55c-2.82,2.37-4.93,5.59-6.35,9.67-1.42,4.08-2.13,8.72-2.13,13.92s.71,9.84,2.13,13.92c1.42,4.08,3.53,7.29,6.35,9.64,2.81,2.35,6.3,3.52,10.45,3.52Z"/></g><g id="m"><rect class="n" width="595.28" height="595.28"/></g></svg>